<mxfile host="app.diagrams.net" modified="2022-09-22T07:33:25.850Z" agent="5.0 (Windows NT 10.0; Win64; x64) AppleWebKit/537.36 (KHTML, like Gecko) Chrome/105.0.0.0 Safari/537.36" etag="PlIz4IXFKRqOjmZSZaxu" version="20.2.8" type="github">
  <diagram id="C5RBs43oDa-KdzZeNtuy" name="Page-1">
    <mxGraphModel dx="782" dy="436" grid="1" gridSize="10" guides="1" tooltips="1" connect="1" arrows="1" fold="1" page="1" pageScale="1" pageWidth="827" pageHeight="1169" math="0" shadow="0">
      <root>
        <mxCell id="WIyWlLk6GJQsqaUBKTNV-0" />
        <mxCell id="WIyWlLk6GJQsqaUBKTNV-1" parent="WIyWlLk6GJQsqaUBKTNV-0" />
        <mxCell id="gNUKt4H6VTgrp4jX2pmN-1" style="edgeStyle=orthogonalEdgeStyle;rounded=0;orthogonalLoop=1;jettySize=auto;html=1;exitX=0.5;exitY=1;exitDx=0;exitDy=0;entryX=0.5;entryY=0;entryDx=0;entryDy=0;fontSize=16;endArrow=block;endFill=0;" edge="1" parent="WIyWlLk6GJQsqaUBKTNV-1" source="gNUKt4H6VTgrp4jX2pmN-2" target="gNUKt4H6VTgrp4jX2pmN-22">
          <mxGeometry relative="1" as="geometry" />
        </mxCell>
        <mxCell id="gNUKt4H6VTgrp4jX2pmN-2" value="" style="rounded=1;whiteSpace=wrap;html=1;fontSize=16;fillColor=#dae8fc;strokeColor=#6c8ebf;sketch=1;" vertex="1" parent="WIyWlLk6GJQsqaUBKTNV-1">
          <mxGeometry x="87.5" y="418" width="515" height="360" as="geometry" />
        </mxCell>
        <mxCell id="gNUKt4H6VTgrp4jX2pmN-3" style="edgeStyle=orthogonalEdgeStyle;rounded=0;orthogonalLoop=1;jettySize=auto;html=1;entryX=0.5;entryY=0;entryDx=0;entryDy=0;fontSize=16;endArrow=block;endFill=0;" edge="1" parent="WIyWlLk6GJQsqaUBKTNV-1" source="gNUKt4H6VTgrp4jX2pmN-4" target="gNUKt4H6VTgrp4jX2pmN-2">
          <mxGeometry relative="1" as="geometry" />
        </mxCell>
        <mxCell id="gNUKt4H6VTgrp4jX2pmN-4" value="" style="rounded=1;whiteSpace=wrap;html=1;fontSize=16;fillColor=#d0cee2;strokeColor=#56517e;fillStyle=auto;shadow=0;sketch=1;" vertex="1" parent="WIyWlLk6GJQsqaUBKTNV-1">
          <mxGeometry x="105" y="140" width="480" height="250" as="geometry" />
        </mxCell>
        <mxCell id="gNUKt4H6VTgrp4jX2pmN-5" value="" style="rounded=1;whiteSpace=wrap;html=1;fontSize=16;fillColor=#dae8fc;strokeColor=#6c8ebf;sketch=1;" vertex="1" parent="WIyWlLk6GJQsqaUBKTNV-1">
          <mxGeometry x="110" y="433" width="130" height="323" as="geometry" />
        </mxCell>
        <mxCell id="gNUKt4H6VTgrp4jX2pmN-6" style="edgeStyle=orthogonalEdgeStyle;rounded=0;orthogonalLoop=1;jettySize=auto;html=1;entryX=0.5;entryY=0;entryDx=0;entryDy=0;fontSize=16;endArrow=block;endFill=0;" edge="1" parent="WIyWlLk6GJQsqaUBKTNV-1" source="gNUKt4H6VTgrp4jX2pmN-7" target="gNUKt4H6VTgrp4jX2pmN-14">
          <mxGeometry relative="1" as="geometry" />
        </mxCell>
        <mxCell id="gNUKt4H6VTgrp4jX2pmN-7" value="UI设计" style="rounded=1;whiteSpace=wrap;html=1;fontSize=16;fillColor=#fff2cc;strokeColor=#d6b656;" vertex="1" parent="WIyWlLk6GJQsqaUBKTNV-1">
          <mxGeometry x="140" y="160" width="90" height="40" as="geometry" />
        </mxCell>
        <mxCell id="gNUKt4H6VTgrp4jX2pmN-8" style="edgeStyle=orthogonalEdgeStyle;rounded=0;orthogonalLoop=1;jettySize=auto;html=1;entryX=0.5;entryY=0;entryDx=0;entryDy=0;fontSize=16;endArrow=block;endFill=0;" edge="1" parent="WIyWlLk6GJQsqaUBKTNV-1" source="gNUKt4H6VTgrp4jX2pmN-9" target="gNUKt4H6VTgrp4jX2pmN-4">
          <mxGeometry relative="1" as="geometry" />
        </mxCell>
        <mxCell id="gNUKt4H6VTgrp4jX2pmN-9" value="需求下发" style="ellipse;whiteSpace=wrap;html=1;aspect=fixed;fontSize=16;fillColor=#f8cecc;strokeColor=#b85450;" vertex="1" parent="WIyWlLk6GJQsqaUBKTNV-1">
          <mxGeometry x="305" y="30" width="80" height="80" as="geometry" />
        </mxCell>
        <mxCell id="gNUKt4H6VTgrp4jX2pmN-10" style="edgeStyle=orthogonalEdgeStyle;rounded=0;orthogonalLoop=1;jettySize=auto;html=1;entryX=0.5;entryY=0;entryDx=0;entryDy=0;fontSize=16;endArrow=block;endFill=0;" edge="1" parent="WIyWlLk6GJQsqaUBKTNV-1" source="gNUKt4H6VTgrp4jX2pmN-11" target="gNUKt4H6VTgrp4jX2pmN-15">
          <mxGeometry relative="1" as="geometry" />
        </mxCell>
        <mxCell id="gNUKt4H6VTgrp4jX2pmN-11" value="概要设计" style="rounded=1;whiteSpace=wrap;html=1;fontSize=16;fillColor=#fff2cc;strokeColor=#d6b656;" vertex="1" parent="WIyWlLk6GJQsqaUBKTNV-1">
          <mxGeometry x="450" y="160" width="90" height="40" as="geometry" />
        </mxCell>
        <mxCell id="gNUKt4H6VTgrp4jX2pmN-12" style="edgeStyle=orthogonalEdgeStyle;rounded=0;orthogonalLoop=1;jettySize=auto;html=1;entryX=0.5;entryY=0;entryDx=0;entryDy=0;fontSize=16;endArrow=block;endFill=0;" edge="1" parent="WIyWlLk6GJQsqaUBKTNV-1" source="gNUKt4H6VTgrp4jX2pmN-13" target="gNUKt4H6VTgrp4jX2pmN-16">
          <mxGeometry relative="1" as="geometry" />
        </mxCell>
        <mxCell id="gNUKt4H6VTgrp4jX2pmN-13" value="测试用例" style="rounded=1;whiteSpace=wrap;html=1;fontSize=16;fillColor=#fff2cc;strokeColor=#d6b656;" vertex="1" parent="WIyWlLk6GJQsqaUBKTNV-1">
          <mxGeometry x="300" y="160" width="90" height="40" as="geometry" />
        </mxCell>
        <mxCell id="gNUKt4H6VTgrp4jX2pmN-55" value="" style="edgeStyle=orthogonalEdgeStyle;rounded=0;orthogonalLoop=1;jettySize=auto;html=1;endArrow=block;endFill=0;" edge="1" parent="WIyWlLk6GJQsqaUBKTNV-1" source="gNUKt4H6VTgrp4jX2pmN-14" target="gNUKt4H6VTgrp4jX2pmN-51">
          <mxGeometry relative="1" as="geometry" />
        </mxCell>
        <mxCell id="gNUKt4H6VTgrp4jX2pmN-14" value="前端开发" style="rounded=1;whiteSpace=wrap;html=1;fontSize=16;fillColor=#fff2cc;strokeColor=#d6b656;" vertex="1" parent="WIyWlLk6GJQsqaUBKTNV-1">
          <mxGeometry x="140" y="230" width="90" height="40" as="geometry" />
        </mxCell>
        <mxCell id="gNUKt4H6VTgrp4jX2pmN-56" value="" style="edgeStyle=orthogonalEdgeStyle;rounded=0;orthogonalLoop=1;jettySize=auto;html=1;endArrow=block;endFill=0;" edge="1" parent="WIyWlLk6GJQsqaUBKTNV-1" source="gNUKt4H6VTgrp4jX2pmN-15" target="gNUKt4H6VTgrp4jX2pmN-53">
          <mxGeometry relative="1" as="geometry" />
        </mxCell>
        <mxCell id="gNUKt4H6VTgrp4jX2pmN-15" value="后端开发" style="rounded=1;whiteSpace=wrap;html=1;fontSize=16;fillColor=#fff2cc;strokeColor=#d6b656;" vertex="1" parent="WIyWlLk6GJQsqaUBKTNV-1">
          <mxGeometry x="450" y="230" width="90" height="40" as="geometry" />
        </mxCell>
        <mxCell id="gNUKt4H6VTgrp4jX2pmN-54" value="" style="edgeStyle=orthogonalEdgeStyle;rounded=0;orthogonalLoop=1;jettySize=auto;html=1;endArrow=block;endFill=0;" edge="1" parent="WIyWlLk6GJQsqaUBKTNV-1" source="gNUKt4H6VTgrp4jX2pmN-16" target="gNUKt4H6VTgrp4jX2pmN-52">
          <mxGeometry relative="1" as="geometry" />
        </mxCell>
        <mxCell id="gNUKt4H6VTgrp4jX2pmN-16" value="接口用例" style="rounded=1;whiteSpace=wrap;html=1;fontSize=16;fillColor=#fff2cc;strokeColor=#d6b656;" vertex="1" parent="WIyWlLk6GJQsqaUBKTNV-1">
          <mxGeometry x="300" y="230" width="90" height="40" as="geometry" />
        </mxCell>
        <mxCell id="gNUKt4H6VTgrp4jX2pmN-17" style="edgeStyle=orthogonalEdgeStyle;curved=1;rounded=0;orthogonalLoop=1;jettySize=auto;html=1;fontSize=16;endArrow=block;endFill=0;" edge="1" parent="WIyWlLk6GJQsqaUBKTNV-1" source="gNUKt4H6VTgrp4jX2pmN-18" target="gNUKt4H6VTgrp4jX2pmN-20">
          <mxGeometry relative="1" as="geometry" />
        </mxCell>
        <mxCell id="gNUKt4H6VTgrp4jX2pmN-18" value="手工用例" style="rounded=1;whiteSpace=wrap;html=1;fontSize=16;fillColor=#ffe6cc;strokeColor=#d79b00;" vertex="1" parent="WIyWlLk6GJQsqaUBKTNV-1">
          <mxGeometry x="130" y="512" width="90" height="40" as="geometry" />
        </mxCell>
        <mxCell id="gNUKt4H6VTgrp4jX2pmN-19" style="edgeStyle=orthogonalEdgeStyle;curved=1;rounded=0;orthogonalLoop=1;jettySize=auto;html=1;entryX=0.5;entryY=0;entryDx=0;entryDy=0;fontSize=16;endArrow=block;endFill=0;" edge="1" parent="WIyWlLk6GJQsqaUBKTNV-1" source="gNUKt4H6VTgrp4jX2pmN-20" target="gNUKt4H6VTgrp4jX2pmN-21">
          <mxGeometry relative="1" as="geometry" />
        </mxCell>
        <mxCell id="gNUKt4H6VTgrp4jX2pmN-20" value="性能测试" style="rounded=1;whiteSpace=wrap;html=1;fontSize=16;fillColor=#d5e8d4;strokeColor=#82b366;" vertex="1" parent="WIyWlLk6GJQsqaUBKTNV-1">
          <mxGeometry x="130" y="592" width="90" height="40" as="geometry" />
        </mxCell>
        <mxCell id="gNUKt4H6VTgrp4jX2pmN-21" value="稳定性测试" style="rounded=1;whiteSpace=wrap;html=1;fontSize=16;fillColor=#dae8fc;strokeColor=#6c8ebf;" vertex="1" parent="WIyWlLk6GJQsqaUBKTNV-1">
          <mxGeometry x="130" y="667" width="90" height="40" as="geometry" />
        </mxCell>
        <mxCell id="gNUKt4H6VTgrp4jX2pmN-22" value="版本发布" style="ellipse;whiteSpace=wrap;html=1;aspect=fixed;fontSize=16;fillColor=#f8cecc;strokeColor=#b85450;" vertex="1" parent="WIyWlLk6GJQsqaUBKTNV-1">
          <mxGeometry x="305" y="811" width="80" height="80" as="geometry" />
        </mxCell>
        <mxCell id="gNUKt4H6VTgrp4jX2pmN-25" value="X86" style="text;html=1;strokeColor=none;fillColor=none;align=center;verticalAlign=middle;whiteSpace=wrap;rounded=0;fontSize=16;" vertex="1" parent="WIyWlLk6GJQsqaUBKTNV-1">
          <mxGeometry x="145" y="449" width="60" height="30" as="geometry" />
        </mxCell>
        <mxCell id="gNUKt4H6VTgrp4jX2pmN-28" value="" style="rounded=1;whiteSpace=wrap;html=1;fontSize=16;fillColor=#dae8fc;strokeColor=#6c8ebf;sketch=1;" vertex="1" parent="WIyWlLk6GJQsqaUBKTNV-1">
          <mxGeometry x="250" y="433" width="130" height="323" as="geometry" />
        </mxCell>
        <mxCell id="gNUKt4H6VTgrp4jX2pmN-29" style="edgeStyle=orthogonalEdgeStyle;curved=1;rounded=0;orthogonalLoop=1;jettySize=auto;html=1;fontSize=16;endArrow=block;endFill=0;" edge="1" parent="WIyWlLk6GJQsqaUBKTNV-1" source="gNUKt4H6VTgrp4jX2pmN-30" target="gNUKt4H6VTgrp4jX2pmN-32">
          <mxGeometry relative="1" as="geometry" />
        </mxCell>
        <mxCell id="gNUKt4H6VTgrp4jX2pmN-30" value="手工用例" style="rounded=1;whiteSpace=wrap;html=1;fontSize=16;fillColor=#ffe6cc;strokeColor=#d79b00;" vertex="1" parent="WIyWlLk6GJQsqaUBKTNV-1">
          <mxGeometry x="270" y="512" width="90" height="40" as="geometry" />
        </mxCell>
        <mxCell id="gNUKt4H6VTgrp4jX2pmN-31" style="edgeStyle=orthogonalEdgeStyle;curved=1;rounded=0;orthogonalLoop=1;jettySize=auto;html=1;entryX=0.5;entryY=0;entryDx=0;entryDy=0;fontSize=16;endArrow=block;endFill=0;" edge="1" parent="WIyWlLk6GJQsqaUBKTNV-1" source="gNUKt4H6VTgrp4jX2pmN-32" target="gNUKt4H6VTgrp4jX2pmN-33">
          <mxGeometry relative="1" as="geometry" />
        </mxCell>
        <mxCell id="gNUKt4H6VTgrp4jX2pmN-32" value="性能测试" style="rounded=1;whiteSpace=wrap;html=1;fontSize=16;fillColor=#d5e8d4;strokeColor=#82b366;" vertex="1" parent="WIyWlLk6GJQsqaUBKTNV-1">
          <mxGeometry x="270" y="592" width="90" height="40" as="geometry" />
        </mxCell>
        <mxCell id="gNUKt4H6VTgrp4jX2pmN-33" value="稳定性测试" style="rounded=1;whiteSpace=wrap;html=1;fontSize=16;fillColor=#dae8fc;strokeColor=#6c8ebf;" vertex="1" parent="WIyWlLk6GJQsqaUBKTNV-1">
          <mxGeometry x="270" y="667" width="90" height="40" as="geometry" />
        </mxCell>
        <mxCell id="gNUKt4H6VTgrp4jX2pmN-36" value="Kylin" style="text;html=1;strokeColor=none;fillColor=none;align=center;verticalAlign=middle;whiteSpace=wrap;rounded=0;fontSize=16;" vertex="1" parent="WIyWlLk6GJQsqaUBKTNV-1">
          <mxGeometry x="285" y="449" width="60" height="30" as="geometry" />
        </mxCell>
        <mxCell id="gNUKt4H6VTgrp4jX2pmN-39" value="" style="rounded=1;whiteSpace=wrap;html=1;fontSize=16;fillColor=#dae8fc;strokeColor=#6c8ebf;sketch=1;" vertex="1" parent="WIyWlLk6GJQsqaUBKTNV-1">
          <mxGeometry x="390" y="433" width="130" height="323" as="geometry" />
        </mxCell>
        <mxCell id="gNUKt4H6VTgrp4jX2pmN-40" style="edgeStyle=orthogonalEdgeStyle;curved=1;rounded=0;orthogonalLoop=1;jettySize=auto;html=1;fontSize=16;endArrow=block;endFill=0;" edge="1" parent="WIyWlLk6GJQsqaUBKTNV-1" source="gNUKt4H6VTgrp4jX2pmN-41" target="gNUKt4H6VTgrp4jX2pmN-43">
          <mxGeometry relative="1" as="geometry" />
        </mxCell>
        <mxCell id="gNUKt4H6VTgrp4jX2pmN-41" value="手工用例" style="rounded=1;whiteSpace=wrap;html=1;fontSize=16;fillColor=#ffe6cc;strokeColor=#d79b00;" vertex="1" parent="WIyWlLk6GJQsqaUBKTNV-1">
          <mxGeometry x="410" y="512" width="90" height="40" as="geometry" />
        </mxCell>
        <mxCell id="gNUKt4H6VTgrp4jX2pmN-42" style="edgeStyle=orthogonalEdgeStyle;curved=1;rounded=0;orthogonalLoop=1;jettySize=auto;html=1;entryX=0.5;entryY=0;entryDx=0;entryDy=0;fontSize=16;endArrow=block;endFill=0;" edge="1" parent="WIyWlLk6GJQsqaUBKTNV-1" source="gNUKt4H6VTgrp4jX2pmN-43" target="gNUKt4H6VTgrp4jX2pmN-44">
          <mxGeometry relative="1" as="geometry" />
        </mxCell>
        <mxCell id="gNUKt4H6VTgrp4jX2pmN-43" value="性能测试" style="rounded=1;whiteSpace=wrap;html=1;fontSize=16;fillColor=#d5e8d4;strokeColor=#82b366;" vertex="1" parent="WIyWlLk6GJQsqaUBKTNV-1">
          <mxGeometry x="410" y="592" width="90" height="40" as="geometry" />
        </mxCell>
        <mxCell id="gNUKt4H6VTgrp4jX2pmN-44" value="稳定性测试" style="rounded=1;whiteSpace=wrap;html=1;fontSize=16;fillColor=#dae8fc;strokeColor=#6c8ebf;" vertex="1" parent="WIyWlLk6GJQsqaUBKTNV-1">
          <mxGeometry x="410" y="667" width="90" height="40" as="geometry" />
        </mxCell>
        <mxCell id="gNUKt4H6VTgrp4jX2pmN-47" value="HG" style="text;html=1;strokeColor=none;fillColor=none;align=center;verticalAlign=middle;whiteSpace=wrap;rounded=0;fontSize=16;" vertex="1" parent="WIyWlLk6GJQsqaUBKTNV-1">
          <mxGeometry x="425" y="449" width="60" height="30" as="geometry" />
        </mxCell>
        <mxCell id="gNUKt4H6VTgrp4jX2pmN-50" value="&lt;font style=&quot;font-size: 20px;&quot;&gt;..........&lt;/font&gt;" style="text;html=1;strokeColor=none;fillColor=none;align=center;verticalAlign=middle;whiteSpace=wrap;rounded=0;fontSize=16;strokeWidth=7;" vertex="1" parent="WIyWlLk6GJQsqaUBKTNV-1">
          <mxGeometry x="530" y="540" width="60" height="30" as="geometry" />
        </mxCell>
        <mxCell id="gNUKt4H6VTgrp4jX2pmN-51" value="自测联调" style="rounded=1;whiteSpace=wrap;html=1;fontSize=16;fillColor=#fff2cc;strokeColor=#d6b656;" vertex="1" parent="WIyWlLk6GJQsqaUBKTNV-1">
          <mxGeometry x="140" y="300" width="90" height="40" as="geometry" />
        </mxCell>
        <mxCell id="gNUKt4H6VTgrp4jX2pmN-52" value="用例评审" style="rounded=1;whiteSpace=wrap;html=1;fontSize=16;fillColor=#fff2cc;strokeColor=#d6b656;" vertex="1" parent="WIyWlLk6GJQsqaUBKTNV-1">
          <mxGeometry x="300" y="300" width="90" height="40" as="geometry" />
        </mxCell>
        <mxCell id="gNUKt4H6VTgrp4jX2pmN-53" value="接口测试" style="rounded=1;whiteSpace=wrap;html=1;fontSize=16;fillColor=#dae8fc;strokeColor=#6c8ebf;" vertex="1" parent="WIyWlLk6GJQsqaUBKTNV-1">
          <mxGeometry x="450" y="300" width="90" height="40" as="geometry" />
        </mxCell>
        <mxCell id="gNUKt4H6VTgrp4jX2pmN-57" value="接口用例" style="rounded=1;whiteSpace=wrap;html=1;fontSize=16;fillColor=#dae8fc;strokeColor=#6c8ebf;" vertex="1" parent="WIyWlLk6GJQsqaUBKTNV-1">
          <mxGeometry x="350" y="350" width="154" height="30" as="geometry" />
        </mxCell>
        <mxCell id="gNUKt4H6VTgrp4jX2pmN-58" value="UI用例" style="rounded=1;whiteSpace=wrap;html=1;fontSize=16;fillColor=#dae8fc;strokeColor=#6c8ebf;" vertex="1" parent="WIyWlLk6GJQsqaUBKTNV-1">
          <mxGeometry x="170" y="350" width="154" height="30" as="geometry" />
        </mxCell>
      </root>
    </mxGraphModel>
  </diagram>
</mxfile>
